# xmcd
#
# Track frame offsets: 
#        150
#        20370
#        45607
#        65947
#
# Disc length: 1222 seconds
#
# Revision: 1
# Processed by: cddbd v1.5.1PL0 Copyright (c) Steve Scherf et al.
# Submitted via: ExactAudioCopy v0.90b4
#
DISCID=3204c404
DTITLE=Lodis C - Wait These Days (EP)
DYEAR=2003
DGENRE=Rock
TTITLE0=Dont Leave a Name
TTITLE1=Can't Let Go
TTITLE2=Wait These Days
TTITLE3=Puppet
EXTD=YEAR: 1993
EXTT0=
EXTT1=
EXTT2=
EXTT3=
PLAYORDER=
